<?xml version="1.0" encoding="UTF-8" standalone="no"?>
<svg
   xmlns:dc="http://purl.org/dc/elements/1.1/"
   xmlns:cc="http://creativecommons.org/ns#"
   xmlns:rdf="http://www.w3.org/1999/02/22-rdf-syntax-ns#"
   xmlns:svg="http://www.w3.org/2000/svg"
   xmlns="http://www.w3.org/2000/svg"
   xmlns:sodipodi="http://sodipodi.sourceforge.net/DTD/sodipodi-0.dtd"
   xmlns:inkscape="http://www.inkscape.org/namespaces/inkscape"
   height="281.53329"
   width="296.31158"
   inkscape:version="1.0 (4035a4fb49, 2020-05-01)"
   sodipodi:docname="wikicontrib-logo-rev.svg"
   version="1.1"
   viewBox="0 0 296.31159 281.53329"
   data-name="圖層 1"
   id="圖層_1">
  <metadata
     id="metadata105">
    <rdf:RDF>
      <cc:Work
         rdf:about="">
        <dc:format>image/svg+xml</dc:format>
        <dc:type
           rdf:resource="http://purl.org/dc/dcmitype/StillImage" />
        <dc:title>wikicontrib logo 2019-12-20 0731(UTC+8)</dc:title>
      </cc:Work>
    </rdf:RDF>
  </metadata>
  <sodipodi:namedview
     fit-margin-bottom="0"
     fit-margin-right="0"
     fit-margin-left="0"
     fit-margin-top="0"
     inkscape:current-layer="圖層_1"
     inkscape:window-maximized="1"
     inkscape:window-y="30"
     inkscape:window-x="0"
     inkscape:cy="136.46738"
     inkscape:cx="54.612918"
     inkscape:zoom="1.9616829"
     showgrid="false"
     id="namedview103"
     inkscape:window-height="1377"
     inkscape:window-width="2560"
     inkscape:pageshadow="2"
     inkscape:pageopacity="0"
     guidetolerance="10"
     gridtolerance="10"
     objecttolerance="10"
     borderopacity="1"
     bordercolor="#666666"
     pagecolor="#ffffff" />
  <defs
     id="defs4">
    <style
       id="style2">
      .cls-1 {
        fill: #ff1549;
      }

      .cls-12, .cls-2, .cls-4 {
        fill: none;
      }

      .cls-2 {
        stroke: #069;
      }

      .cls-11, .cls-12, .cls-2, .cls-3, .cls-4 {
        stroke-miterlimit: 10;
      }

      .cls-2, .cls-4 {
        stroke-width: 15px;
      }

      .cls-3 {
        fill: #396;
        stroke: #396;
      }

      .cls-11, .cls-12, .cls-4 {
        stroke: #900;
      }

      .cls-5 {
        fill: #980000;
      }

      .cls-6 {
        fill: #ff5559;
      }

      .cls-7 {
        fill: #00af89;
      }

      .cls-8 {
        fill: #b1d7ce;
      }

      .cls-9 {
        fill: #efeded;
      }

      .cls-10 {
        fill: #14866d;
      }

      .cls-11 {
        fill: #900;
      }

      .cls-12 {
        stroke-width: 7px;
      }
    </style>
  </defs>
  <title
     id="title6">wikicontrib logo 2019-12-20 0731(UTC+8)</title>
  <line
     style="stroke-width:0.812792"
     id="line8"
     y2="162.15208"
     x2="256.79364"
     y1="162.15208"
     x1="258.35419"
     class="cls-1" />
  <rect
     style="fill:#1a1a1a;stroke:#1a1a1a;stroke-width:12.1919;stroke-miterlimit:10.3;stroke-dasharray:none;stroke-opacity:1"
     id="rect10"
     rx="61.503311"
     height="154.02415"
     width="232.94629"
     y="6.0959501"
     x="32.479179"
     class="cls-2" />
  <polygon
     transform="matrix(0.81279233,0,0,0.81279233,-24.790166,7.1554565e-6)"
     style="fill:#1a1a1a;stroke:none"
     id="polygon12"
     points="348.94,53.1 395.06,73.83 395.06,129.21 348.94,149.94 "
     class="cls-3" />
  <polygon
     transform="matrix(0.81279233,0,0,0.81279233,-0.40639616,7.1554565e-6)"
     style="fill:#1a1a1a;stroke:none"
     id="polygon14"
     points="0.5,128.82 0.5,73.45 46.63,52.71 46.63,149.56 "
     class="cls-3" />
  <path
     style="stroke:#1a1a1a;stroke-linecap:round;stroke-linejoin:round;stroke-opacity:1"
     id="path16"
     d="m 271.9278,175.22643 c 0,18.60374 -29.44747,33.66121 -65.83618,33.66121"
     class="cls-4" />
  <path
     style="stroke:#1a1a1a;stroke-linecap:round;stroke-opacity:1"
     id="path18"
     d="m 26.334473,175.22643 c 0,18.60374 29.44746,33.66121 65.83618,33.66121"
     class="cls-4" />
  <g
     transform="matrix(0.99553759,0,0,0.99553759,-83.800454,-59.461077)"
     id="g1281">
    <rect
       class="cls-5"
       x="221.66277"
       y="222.41821"
       width="19.685829"
       height="19.685829"
       id="rect20"
       style="stroke-width:0.812792" />
    <rect
       class="cls-5"
       x="221.66277"
       y="243.33949"
       width="19.685829"
       height="19.685829"
       id="rect22"
       style="stroke-width:0.812792" />
    <rect
       class="cls-5"
       x="242.57591"
       y="243.33949"
       width="19.685829"
       height="19.685829"
       id="rect24"
       style="stroke-width:0.812792" />
    <rect
       class="cls-5"
       x="263.49719"
       y="243.33949"
       width="19.685829"
       height="19.685829"
       id="rect26"
       style="stroke-width:0.812792" />
    <rect
       class="cls-6"
       x="179.12122"
       y="306.08707"
       width="19.685829"
       height="19.685829"
       id="rect28"
       style="stroke-width:0.812792" />
    <rect
       class="cls-5"
       x="242.57591"
       y="306.08707"
       width="19.685829"
       height="19.685829"
       id="rect30"
       style="stroke-width:0.812792" />
    <rect
       class="cls-6"
       x="263.49719"
       y="306.08707"
       width="19.685829"
       height="19.685829"
       id="rect32"
       style="stroke-width:0.812792" />
    <rect
       class="cls-6"
       x="242.57591"
       y="243.33949"
       width="19.685829"
       height="19.685829"
       id="rect34"
       style="stroke-width:0.812792" />
    <rect
       class="cls-6"
       x="221.66277"
       y="222.41821"
       width="19.685829"
       height="19.685829"
       id="rect36"
       style="stroke-width:0.812792" />
    <rect
       class="cls-6"
       x="263.49719"
       y="243.33949"
       width="19.685829"
       height="19.685829"
       id="rect38"
       style="stroke-width:0.812792" />
    <rect
       class="cls-6"
       x="242.57591"
       y="306.08707"
       width="19.685829"
       height="19.685829"
       id="rect40"
       style="stroke-width:0.812792" />
    <rect
       class="cls-7"
       x="179.12122"
       y="263.91937"
       width="19.685829"
       height="19.685829"
       id="rect42"
       style="stroke-width:0.812792" />
    <rect
       class="cls-7"
       x="200.38387"
       y="222.41821"
       width="19.685829"
       height="19.685829"
       id="rect44"
       style="stroke-width:0.812792" />
    <rect
       class="cls-7"
       x="221.66277"
       y="222.41821"
       width="19.685829"
       height="19.685829"
       id="rect46"
       style="stroke-width:0.812792" />
    <rect
       class="cls-7"
       x="242.57591"
       y="243.33949"
       width="19.685829"
       height="19.685829"
       id="rect48"
       style="stroke-width:0.812792" />
    <rect
       class="cls-7"
       x="263.49719"
       y="243.33949"
       width="19.685829"
       height="19.685829"
       id="rect50"
       style="stroke-width:0.812792" />
    <rect
       class="cls-7"
       x="242.57591"
       y="306.08707"
       width="19.685829"
       height="19.685829"
       id="rect52"
       style="stroke-width:0.812792" />
    <rect
       class="cls-7"
       x="200.38387"
       y="306.08707"
       width="19.685829"
       height="19.685829"
       id="rect54"
       style="stroke-width:0.812792" />
    <rect
       class="cls-7"
       x="179.12122"
       y="306.08707"
       width="19.685829"
       height="19.685829"
       id="rect56"
       style="stroke-width:0.812792" />
    <rect
       class="cls-7"
       x="263.49719"
       y="306.11957"
       width="19.685829"
       height="19.685829"
       id="rect58"
       style="stroke-width:0.812792" />
    <rect
       class="cls-7"
       x="221.66277"
       y="243.33949"
       width="19.685829"
       height="19.685829"
       id="rect60"
       style="stroke-width:0.812792" />
    <rect
       class="cls-8"
       x="179.12122"
       y="222.41821"
       width="19.685829"
       height="19.685829"
       id="rect62"
       style="stroke-width:0.812792" />
    <rect
       class="cls-8"
       x="263.49719"
       y="263.91937"
       width="19.685829"
       height="19.685829"
       id="rect64"
       style="stroke-width:0.812792" />
    <rect
       class="cls-9"
       x="200.392"
       y="243.32323"
       width="19.685829"
       height="19.685829"
       id="rect66"
       style="fill:#333333;stroke-width:0.812792" />
    <rect
       class="cls-9"
       x="200.392"
       y="263.91937"
       width="19.685829"
       height="19.685829"
       id="rect68"
       style="fill:#808080;stroke-width:0.812792" />
    <rect
       class="cls-9"
       x="242.6572"
       y="284.77563"
       width="19.685829"
       height="19.685829"
       id="rect70"
       style="fill:#808080;stroke-width:0.812792" />
    <rect
       class="cls-9"
       x="221.5246"
       y="284.77563"
       width="19.685829"
       height="19.685829"
       id="rect72"
       style="fill:#333333;stroke-width:0.812792" />
    <rect
       class="cls-9"
       x="242.6572"
       y="263.91937"
       width="19.685829"
       height="19.685829"
       id="rect74"
       style="fill:#1a1a1a;stroke-width:0.812792" />
    <rect
       class="cls-9"
       x="242.6572"
       y="222.19063"
       width="19.685829"
       height="19.685829"
       id="rect76"
       style="fill:#808080;stroke-width:0.812792" />
    <rect
       class="cls-10"
       x="179.11308"
       y="243.32323"
       width="19.685829"
       height="19.685829"
       id="rect78"
       style="stroke-width:0.812792" />
    <rect
       class="cls-10"
       x="179.12122"
       y="284.77563"
       width="19.685829"
       height="19.685829"
       id="rect80"
       style="stroke-width:0.812792" />
    <rect
       class="cls-10"
       x="221.5246"
       y="305.90823"
       width="19.685829"
       height="19.685829"
       id="rect82"
       style="stroke-width:0.812792" />
    <rect
       class="cls-10"
       x="263.36713"
       y="222.54826"
       width="19.685829"
       height="19.685829"
       id="rect84"
       style="stroke-width:0.812792" />
    <rect
       class="cls-10"
       x="263.36713"
       y="284.77563"
       width="19.685829"
       height="19.685829"
       id="rect86"
       style="stroke-width:0.812792" />
    <rect
       class="cls-10"
       x="221.66277"
       y="263.82187"
       width="19.685829"
       height="19.685829"
       id="rect90"
       style="stroke-width:0.812792" />
    <rect
       class="cls-10"
       x="200.38387"
       y="284.95447"
       width="19.685829"
       height="19.685829"
       id="rect92"
       style="stroke-width:0.812792" />
  </g>
  <g
     style="opacity:1;fill:#ffffff;fill-opacity:0.926087"
     transform="matrix(0.81347581,0,0,0.81347581,-54.191004,-80.185892)"
     id="g11146">
    <path
       inkscape:connector-curvature="0"
       style="fill:#ffffff;fill-opacity:0.926087"
       d="m 183.49052,212.413 c -4.268,0 -7.726,-3.459 -7.726,-7.726 v -17.101 c 0,-4.267 3.458,-7.726 7.726,-7.726 4.268,0 7.726,3.459 7.726,7.726 v 17.101 c 0.001,4.267 -3.458,7.726 -7.726,7.726 z"
       id="path11140" />
    <path
       inkscape:connector-curvature="0"
       style="fill:#ffffff;fill-opacity:0.926087"
       d="m 328.50848,212.413 c -4.268,0 -7.726,-3.459 -7.726,-7.726 v -17.101 c 0,-4.267 3.458,-7.726 7.726,-7.726 4.268,0 7.726,3.459 7.726,7.726 v 17.101 c 0,4.267 -3.459,7.726 -7.726,7.726 z"
       id="path11142" />
    <path
       inkscape:connector-curvature="0"
       style="fill:#ffffff;fill-opacity:0.926087"
       d="m 255.999,245.52084 c -11.319,0 -21.94,-4.723 -29.139,-12.96 -2.809,-3.213 -2.481,-8.093 0.731,-10.902 3.213,-2.809 8.094,-2.482 10.902,0.731 4.266,4.879 10.646,7.677 17.505,7.677 6.86,0 13.24,-2.798 17.504,-7.676 2.807,-3.214 7.69,-3.542 10.901,-0.732 3.213,2.808 3.542,7.689 0.732,10.902 -7.196,8.237 -17.817,12.96 -29.136,12.96 z"
       id="path11144" />
  </g>
  <rect
     class="cls-2"
     x="90.9254"
     y="156.33881"
     width="116.42214"
     height="115.6329"
     rx="32.290073"
     id="rect88"
     style="fill:none;stroke:#1a1a1a;stroke-width:19.1232px;stroke-miterlimit:10;stroke-opacity:1" />
</svg>
